HIERARCHY
ROOT hip
{
	OFFSET 0.000000 0.000000 0.000000 
	CHANNELS 6 Xposition Yposition Zposition Xrotation Zrotation Yrotation
	JOINT abdomen
	{
		OFFSET 0.000000 3.402643 0.000000 
		CHANNELS 3 Xrotation Zrotation Yrotation
		JOINT chest
		{
			OFFSET 0.000000 8.438565 -0.680529 
			CHANNELS 3 Xrotation Zrotation Yrotation
			JOINT neck
			{
				OFFSET 0.000000 10.207942 -0.272212 
				CHANNELS 3 Xrotation Zrotation Yrotation
				JOINT head
				{
					OFFSET 0.000000 3.130431 0.000000 
					CHANNELS 3 Xrotation Zrotation Yrotation
					End Site
					{
						OFFSET 0.000000 3.130435 0.000000 
					}
				}
			}
			JOINT lCollar
			{
				OFFSET 3.470700 6.669187 -0.816635 
				CHANNELS 3 Yrotation Zrotation Xrotation
				JOINT lShldr
				{
					OFFSET 3.198488 0.000000 0.000000 
					CHANNELS 3 Zrotation Yrotation Xrotation
					JOINT lForeArm
					{
						OFFSET 10.139888 0.000000 0.000000 
						CHANNELS 3 Yrotation Zrotation Xrotation
						JOINT lHand
						{
							OFFSET 8.370511 0.000000 0.000000 
							CHANNELS 3 Zrotation Yrotation Xrotation
							End Site
							{
								OFFSET 4.083176 0.000000 0.000000 
							}
						}
					}
				}
			}
			JOINT rCollar
			{
				OFFSET -3.470700 6.669187 -0.816635 
				CHANNELS 3 Yrotation Zrotation Xrotation
				JOINT rShldr
				{
					OFFSET -3.198488 0.000000 0.000000 
					CHANNELS 3 Zrotation Yrotation Xrotation
					JOINT rForeArm
					{
						OFFSET -10.139888 0.000000 0.000000 
						CHANNELS 3 Yrotation Zrotation Xrotation
						JOINT rHand
						{
							OFFSET -8.370511 0.000000 0.000000 
							CHANNELS 3 Zrotation Yrotation Xrotation
							End Site
							{
								OFFSET -4.083176 0.000000 0.000000 
							}
						}
					}
				}
			}
		}
	}
	JOINT lThigh
	{
		OFFSET 5.308129 -1.633274 1.361059 
		CHANNELS 3 Xrotation Zrotation Yrotation
		JOINT lShin
		{
			OFFSET -2.041588 -20.007561 0.000000 
			CHANNELS 3 Xrotation Zrotation Yrotation
			JOINT lFoot
			{
				OFFSET 0.000000 -19.190928 -1.224953 
				CHANNELS 3 Xrotation Yrotation Zrotation
				End Site
				{
					OFFSET 0.000000 -2.449906 4.627600 
				}
			}
		}
	}
	JOINT rThigh
	{
		OFFSET -5.308129 -1.633274 1.361059 
		CHANNELS 3 Xrotation Zrotation Yrotation
		JOINT rShin
		{
			OFFSET 2.041588 -20.007561 0.000000 
			CHANNELS 3 Xrotation Zrotation Yrotation
			JOINT rFoot
			{
				OFFSET 0.000000 -19.190928 -1.224953 
				CHANNELS 3 Xrotation Yrotation Zrotation
				End Site
				{
					OFFSET 0.000000 -2.449906 4.627600 
				}
			}
		}
	}
}
MOTION
Frames: 16
Frame Time: 0.016667
5.749977 41.171421 -22.591846 10.601300 3.071760 -3.507170 -18.989300 0.292878 -4.003550 15.748100 6.724510 -2.243600 12.781332 -6.649976 -7.166710 14.483100 7.172760 0.582526 2.000000 -2.000000 0.000000 94.294701 -167.283997 7.588720 116.192001 -0.150194 0.141244 0.050259 -0.042107 -152.136993 -2.000000 2.000000 0.000000 -100.987000 179.845001 -3.739870 -123.653000 0.144496 0.095921 -0.057902 0.033337 -148.914001 -7.812212 0.757069 -2.093009 40.139778 2.990999 2.675903 -16.607311 -12.102986 -3.411404 -43.394974 -1.514105 8.050814 55.691696 -1.172755 -3.871876 -1.449934 13.440480 0.118884 
5.695481 41.234310 -22.767431 10.966700 3.394050 -4.430610 -18.875299 0.267962 -3.847020 15.789500 6.510800 -2.152940 12.459292 -6.220213 -7.024434 14.239000 7.255710 0.643906 2.000000 -2.000000 0.000000 94.734100 -167.429001 7.266110 115.938004 -0.150777 0.141529 0.050137 -0.041659 -151.970993 -2.000000 2.000000 0.000000 -100.683998 179.962997 -3.437420 -123.623001 0.144550 0.095957 -0.057789 0.032802 -148.718994 -7.834897 0.413966 -1.346381 39.272903 3.027399 2.622274 -17.337313 -10.539911 -3.014049 -44.167812 -2.061650 7.903499 55.860237 -1.147609 -3.911017 -4.198681 10.831005 0.448409 
5.640974 41.297192 -22.942905 11.332900 3.724970 -5.347450 -18.761400 0.246368 -3.681680 15.821100 6.287230 -2.071520 12.146344 -5.778232 -6.884848 13.995100 7.348280 0.706284 2.000000 -2.000000 0.000000 95.173500 -167.574997 6.953270 115.694000 -0.151339 0.141801 0.050017 -0.041210 -151.804993 -2.000000 2.000000 0.000000 -100.380997 -179.919998 -3.144730 -123.584000 0.144622 0.096005 -0.057678 0.032267 -148.522995 -7.719814 0.079825 -0.609820 38.289757 3.046705 2.573649 -18.092083 -8.988530 -2.569778 -45.002903 -2.592860 7.736045 56.066048 -1.137904 -3.918193 -6.887127 8.178334 0.647938 
5.533849 41.283691 -23.033335 11.640700 4.046180 -6.275880 -18.824699 0.284184 -3.469390 15.743300 6.198940 -1.965340 11.967258 -5.551409 -6.797735 13.818700 7.381430 0.727803 2.000000 -2.000000 0.000000 95.066200 -167.819000 6.933170 115.351997 -0.152127 0.142178 0.049947 -0.040945 -151.707001 -2.000000 2.000000 0.000000 -100.390999 -179.703995 -2.969460 -123.779999 0.144262 0.095765 -0.057483 0.031302 -148.171997 -7.510624 -0.398653 0.402550 37.463161 3.064692 2.522447 -18.351667 -7.007213 -1.860500 -45.506046 -2.853971 7.874461 56.948372 -1.087691 -3.946535 -10.363422 3.387112 0.112980 
5.426723 41.270187 -23.123880 11.949300 4.366560 -7.191810 -18.897400 0.321963 -3.257300 15.655800 6.100830 -1.859130 11.783841 -5.312423 -6.715117 13.632500 7.424410 0.748228 2.000000 -2.000000 0.000000 94.958900 -168.063004 6.913070 115.010002 -0.152918 0.142549 0.049885 -0.040707 -151.619003 -2.000000 2.000000 0.000000 -100.401001 -179.479004 -2.794210 -123.974998 0.143903 0.095524 -0.057289 0.030309 -147.809998 -7.299881 -0.876907 1.393010 36.571499 3.047113 2.489283 -18.570148 -5.010217 -1.118823 -46.070717 -3.100308 8.045708 57.978287 -1.019644 -3.988052 -13.987695 -1.355319 -0.713500 
5.303611 41.092579 -23.117142 12.054400 4.785200 -8.275780 -18.967501 0.370687 -3.182980 15.743000 6.228130 -1.811530 11.683378 -5.047388 -6.613079 13.456200 7.467120 0.800211 2.000000 -2.000000 0.000000 94.207100 -168.335999 6.648760 115.010002 -0.152918 0.142549 0.049808 -0.040416 -151.511993 -2.000000 2.000000 0.000000 -100.733002 -179.565994 -2.364320 -124.032997 0.143795 0.095451 -0.057569 0.031731 -148.328003 -6.703435 -1.639135 1.440149 35.751247 3.096379 2.427421 -19.296482 -2.600096 -0.253755 -46.429447 -3.469460 7.756050 59.960159 -0.873522 -4.072473 -14.349541 -4.018069 -1.397305 
5.180489 40.914864 -23.110624 12.150400 5.203700 -9.359130 -19.037600 0.419396 -3.108710 15.830400 6.345710 -1.762740 11.570863 -4.781787 -6.513632 13.280100 7.519440 0.853503 2.000000 -2.000000 0.000000 93.455200 -168.598999 6.384470 115.010002 -0.152918 0.142549 0.049733 -0.040125 -151.404007 -2.000000 2.000000 0.000000 -101.065002 -179.653000 -1.934420 -124.092003 0.143688 0.095379 -0.057862 0.033150 -148.845993 -6.056744 -2.392630 1.465168 34.919979 3.160839 2.378991 -20.086519 -0.206516 0.638212 -46.718102 -3.847848 7.484985 61.883377 -0.740263 -4.167472 -14.788901 -6.679749 -2.107738 
4.995265 40.635410 -23.029854 12.185600 5.489500 -10.095700 -19.153000 0.500667 -3.253800 15.955600 6.619420 -1.820400 11.642480 -4.504805 -6.630239 13.233200 7.616970 0.922482 2.000000 -2.000000 0.000000 92.556602 -168.490997 6.111280 115.546997 -0.151676 0.141963 0.049350 -0.038614 -150.848007 -2.000000 2.000000 0.000000 -101.474998 -179.770004 -1.738830 -124.072998 0.143723 0.095403 -0.057851 0.033097 -148.826004 -5.740000 -2.845947 0.570892 34.747799 3.210795 2.357191 -21.078150 0.954059 1.074705 -46.654945 -4.379395 6.258610 64.256615 -0.568632 -4.250539 -13.153684 -7.287955 -1.959846 
4.810054 40.355957 -22.949083 12.221200 5.775230 -10.821200 -19.258801 0.585289 -3.389970 16.070999 6.893090 -1.876940 11.730998 -4.232945 -6.758220 13.186500 7.724170 0.991557 2.000000 -2.000000 0.000000 91.657997 -168.382996 5.847860 116.084000 -0.150440 0.141365 0.048989 -0.037126 -150.300995 -2.000000 2.000000 0.000000 -101.885002 -179.895996 -1.552980 -124.042999 0.143777 0.095439 -0.057834 0.033016 -148.796997 -5.321129 -3.275399 -0.306148 34.554302 3.270314 2.318407 -22.125801 2.085632 1.531641 -46.627613 -4.899870 5.035503 66.523674 -0.372716 -4.348864 -11.372115 -7.873496 -1.817617 
4.527410 40.082943 -22.734518 12.080800 6.083980 -11.609700 -19.384501 0.502415 -3.416550 16.159500 6.903650 -1.896440 11.935662 -4.046096 -7.218549 13.297900 7.846890 0.996958 2.000000 -2.000000 0.000000 91.403702 -167.572006 5.664210 116.992996 -0.148363 0.140327 0.048635 -0.035608 -149.744003 -2.000000 2.000000 0.000000 -102.070000 -179.994003 -1.572280 -124.317001 0.143276 0.095099 -0.057634 0.032052 -148.445007 -5.018586 -3.463461 -0.252119 35.110222 3.307132 2.323391 -22.816088 2.577338 1.802738 -45.476170 -5.300063 3.660636 66.984505 -0.357508 -4.373868 -12.873487 -5.205483 -1.335627 
4.244757 39.809914 -22.519726 11.930700 6.393260 -12.392100 -19.510000 0.425417 -3.455340 16.257700 6.924010 -1.905680 12.148211 -3.865219 -7.667596 13.409400 7.969510 0.994401 2.000000 -2.000000 0.000000 91.149300 -166.761002 5.480550 117.901001 -0.146302 0.139257 0.048303 -0.034113 -149.197006 -2.000000 2.000000 0.000000 -102.246002 179.908005 -1.581810 -124.589996 0.142776 0.094756 -0.057440 0.031087 -148.093994 -4.690818 -3.640615 -0.210845 35.679020 3.320545 2.350449 -23.571272 3.052465 2.062279 -44.330433 -5.689318 2.280807 67.456642 -0.290169 -4.403622 -14.391861 -2.555072 -0.764247 
3.915942 39.767487 -22.164738 11.881200 6.375290 -13.944500 -19.738001 0.472296 -3.302620 16.259600 6.709770 -1.801810 12.573367 -3.775391 -8.105632 13.630600 8.127770 1.041830 2.000000 -2.000000 0.000000 91.324097 -165.363007 4.849020 118.642998 -0.144631 0.138358 0.047940 -0.032401 -148.572006 -2.000000 2.000000 0.000000 -102.598000 179.703995 -1.317650 -125.274002 0.141535 0.093889 -0.057907 0.033364 -148.923996 -4.535687 -3.479022 0.128209 36.867844 3.327296 2.418272 -22.573252 3.577450 2.240691 -42.438023 -5.154773 1.658664 65.171516 -0.464668 -4.327443 -17.244755 -0.235663 -0.032991 
3.587162 39.725178 -21.809973 11.821800 6.357540 -15.498000 -19.956100 0.528459 -3.152820 16.271299 6.485880 -1.704760 12.993070 -3.672211 -8.535493 13.851900 8.285700 1.101620 2.000000 -2.000000 0.000000 91.528099 -163.964996 4.217470 119.394997 -0.142950 0.137425 0.047596 -0.030685 -147.947006 -2.000000 2.000000 0.000000 -102.939003 179.490005 -1.053470 -125.947998 0.140321 0.093020 -0.058407 0.035634 -149.753998 -4.401209 -3.322474 0.440417 38.000351 3.307402 2.497235 -21.502113 4.101968 2.437326 -40.539047 -4.592739 1.047313 62.788837 -0.618761 -4.241030 -20.026310 2.033069 0.808129 
3.285848 39.979671 -21.404207 11.482100 6.547180 -17.598700 -20.186501 0.484598 -2.768980 15.989800 6.084280 -1.519550 13.537287 -3.805107 -8.802801 14.130100 8.345500 1.172400 2.000000 -2.000000 0.000000 92.366898 -162.848999 3.175100 120.342003 -0.140850 0.136219 0.047365 -0.029476 -147.507996 -2.000000 2.000000 0.000000 -102.910004 179.011993 -0.710362 -126.426003 0.139465 0.092394 -0.057817 0.032936 -148.766998 -5.115503 -3.570790 -0.000072 40.487881 3.154298 2.630518 -17.087046 3.448795 1.836945 -38.837742 -4.034286 1.217858 60.295750 -0.820898 -4.116528 -20.580311 3.406971 1.469130 
2.984523 40.234173 -20.998442 11.141900 6.717860 -19.695700 -20.416000 0.428659 -2.389480 15.708500 5.682850 -1.330380 14.073311 -3.929903 -9.070352 14.418100 8.404720 1.246630 2.000000 -2.000000 0.000000 93.235001 -161.742996 2.122920 121.279999 -0.138791 0.134991 0.047139 -0.028238 -147.057999 -2.000000 2.000000 0.000000 -102.880997 178.533997 -0.367343 -126.894997 0.138632 0.091774 -0.057278 0.030255 -147.791000 -5.768559 -3.815431 -0.433429 42.953354 3.002941 2.776752 -12.723872 2.739626 1.283818 -37.114059 -3.476355 1.398762 57.813698 -1.004799 -4.015891 -21.169495 4.808692 2.144120 
2.798424 40.679008 -20.502916 10.762900 6.476830 -22.120300 -20.399799 0.571684 -2.202580 15.733000 5.079700 -1.198770 14.500152 -4.016569 -8.760118 14.547000 8.420230 1.454250 2.000000 -2.000000 0.000000 93.752098 -161.261002 0.571272 122.276001 -0.136626 0.133649 0.047119 -0.028131 -147.018997 -2.000000 2.000000 0.000000 -103.505997 177.276001 0.309700 -127.031998 0.138390 0.091591 -0.057061 0.029099 -147.371002 -7.422326 -3.685889 -0.181623 46.318237 2.723985 3.003115 -5.405483 1.128636 0.819746 -35.175201 -2.762728 1.587917 54.997841 -1.189612 -3.885527 -19.887712 5.896556 2.498376 
